<mxfile host="app.diagrams.net" modified="2024-01-06T17:18:15.217Z" agent="Mozilla/5.0 (Macintosh; Intel Mac OS X 10_15_7) AppleWebKit/605.1.15 (KHTML, like Gecko) Version/15.6 Safari/605.1.15" etag="jqdMmOsV8j-6wyRaXfB-" version="22.1.17" type="github">
  <diagram name="Page-4" id="YXDQPZ1RAeT50rto0kDh">
    <mxGraphModel dx="2031" dy="1320" grid="1" gridSize="10" guides="1" tooltips="1" connect="1" arrows="1" fold="1" page="1" pageScale="1" pageWidth="827" pageHeight="1169" math="0" shadow="0">
      <root>
        <mxCell id="0" />
        <mxCell id="1" parent="0" />
        <mxCell id="z6geWVlJQv_1Q-CfxisJ-1" value="&lt;font style=&quot;font-size: 25px;&quot;&gt;&lt;b&gt;Custody System&lt;/b&gt;&lt;/font&gt;" style="shape=umlFrame;whiteSpace=wrap;html=1;width=140;height=60;boundedLbl=1;verticalAlign=middle;align=left;spacingLeft=5;strokeWidth=2;" vertex="1" parent="1">
          <mxGeometry x="420" y="320" width="990" height="310" as="geometry" />
        </mxCell>
        <mxCell id="z6geWVlJQv_1Q-CfxisJ-2" value="&lt;font style=&quot;font-size: 18px;&quot;&gt;Database&lt;/font&gt;" style="shape=datastore;whiteSpace=wrap;html=1;" vertex="1" parent="1">
          <mxGeometry x="480" y="505" width="100" height="90" as="geometry" />
        </mxCell>
        <mxCell id="z6geWVlJQv_1Q-CfxisJ-3" value="" style="shape=actor;whiteSpace=wrap;html=1;strokeWidth=2;" vertex="1" parent="1">
          <mxGeometry x="355" y="330" width="40" height="60" as="geometry" />
        </mxCell>
        <mxCell id="z6geWVlJQv_1Q-CfxisJ-4" value="&lt;font style=&quot;font-size: 25px;&quot;&gt;&lt;b&gt;Client&lt;br&gt;User&lt;/b&gt;&lt;br&gt;&lt;/font&gt;" style="text;html=1;align=center;verticalAlign=middle;resizable=0;points=[];autosize=1;strokeColor=none;fillColor=none;" vertex="1" parent="1">
          <mxGeometry x="330" y="265" width="90" height="70" as="geometry" />
        </mxCell>
        <mxCell id="z6geWVlJQv_1Q-CfxisJ-5" style="edgeStyle=orthogonalEdgeStyle;rounded=0;orthogonalLoop=1;jettySize=auto;html=1;exitX=1;exitY=0.5;exitDx=0;exitDy=0;entryX=0;entryY=0.5;entryDx=0;entryDy=0;strokeWidth=1;endArrow=async;endFill=0;strokeColor=none;" edge="1" parent="1" source="z6geWVlJQv_1Q-CfxisJ-8">
          <mxGeometry relative="1" as="geometry">
            <mxPoint x="1165" y="485.0000000000002" as="targetPoint" />
          </mxGeometry>
        </mxCell>
        <mxCell id="z6geWVlJQv_1Q-CfxisJ-6" style="edgeStyle=orthogonalEdgeStyle;rounded=0;orthogonalLoop=1;jettySize=auto;html=1;exitX=0.75;exitY=1;exitDx=0;exitDy=0;entryX=0.5;entryY=0;entryDx=0;entryDy=0;" edge="1" parent="1" source="z6geWVlJQv_1Q-CfxisJ-8" target="z6geWVlJQv_1Q-CfxisJ-36">
          <mxGeometry relative="1" as="geometry" />
        </mxCell>
        <mxCell id="z6geWVlJQv_1Q-CfxisJ-7" value="&lt;font style=&quot;font-size: 17px;&quot;&gt;Transaction&lt;br style=&quot;border-color: var(--border-color);&quot;&gt;Message&lt;/font&gt;" style="edgeLabel;html=1;align=center;verticalAlign=middle;resizable=0;points=[];" vertex="1" connectable="0" parent="z6geWVlJQv_1Q-CfxisJ-6">
          <mxGeometry x="0.4249" y="-1" relative="1" as="geometry">
            <mxPoint x="1" as="offset" />
          </mxGeometry>
        </mxCell>
        <mxCell id="z6geWVlJQv_1Q-CfxisJ-8" value="&lt;font style=&quot;font-size: 18px;&quot;&gt;&amp;lt;&amp;lt;Component&amp;gt;&amp;gt;&lt;br&gt;&lt;b&gt;Backend&lt;/b&gt;&lt;/font&gt;" style="html=1;align=center;verticalAlign=middle;dashed=0;" vertex="1" parent="1">
          <mxGeometry x="705" y="410" width="150" height="60" as="geometry" />
        </mxCell>
        <mxCell id="z6geWVlJQv_1Q-CfxisJ-9" value="&lt;font style=&quot;font-size: 18px;&quot;&gt;&amp;lt;&amp;lt;Component&amp;gt;&amp;gt;&lt;br&gt;&lt;b&gt;Frontend&lt;/b&gt;&lt;/font&gt;" style="html=1;align=center;verticalAlign=middle;dashed=0;" vertex="1" parent="1">
          <mxGeometry x="455" y="410" width="150" height="60" as="geometry" />
        </mxCell>
        <mxCell id="z6geWVlJQv_1Q-CfxisJ-10" value="" style="rounded=0;orthogonalLoop=1;jettySize=auto;html=1;endArrow=none;endFill=0;sketch=0;sourcePerimeterSpacing=0;targetPerimeterSpacing=0;exitX=0.25;exitY=1;exitDx=0;exitDy=0;" edge="1" parent="1" source="z6geWVlJQv_1Q-CfxisJ-8" target="z6geWVlJQv_1Q-CfxisJ-13">
          <mxGeometry relative="1" as="geometry">
            <mxPoint x="1075" y="420" as="sourcePoint" />
          </mxGeometry>
        </mxCell>
        <mxCell id="z6geWVlJQv_1Q-CfxisJ-11" value="&lt;font style=&quot;font-size: 17px;&quot;&gt;Data &lt;br&gt;Request&lt;/font&gt;" style="edgeLabel;html=1;align=center;verticalAlign=middle;resizable=0;points=[];" connectable="0" vertex="1" parent="z6geWVlJQv_1Q-CfxisJ-10">
          <mxGeometry x="0.2" y="-2" relative="1" as="geometry">
            <mxPoint as="offset" />
          </mxGeometry>
        </mxCell>
        <mxCell id="z6geWVlJQv_1Q-CfxisJ-12" value="" style="rounded=0;orthogonalLoop=1;jettySize=auto;html=1;endArrow=halfCircle;endFill=0;entryX=0.5;entryY=0.5;endSize=6;strokeWidth=1;sketch=0;exitX=1;exitY=0.7;exitDx=0;exitDy=0;" edge="1" parent="1" source="z6geWVlJQv_1Q-CfxisJ-2" target="z6geWVlJQv_1Q-CfxisJ-13">
          <mxGeometry relative="1" as="geometry">
            <mxPoint x="1115" y="420" as="sourcePoint" />
          </mxGeometry>
        </mxCell>
        <mxCell id="z6geWVlJQv_1Q-CfxisJ-13" value="" style="ellipse;whiteSpace=wrap;html=1;align=center;aspect=fixed;resizable=0;points=[];outlineConnect=0;sketch=0;" vertex="1" parent="1">
          <mxGeometry x="615" y="565" width="10" height="10" as="geometry" />
        </mxCell>
        <mxCell id="z6geWVlJQv_1Q-CfxisJ-14" value="" style="rounded=0;orthogonalLoop=1;jettySize=auto;html=1;endArrow=none;endFill=0;sketch=0;sourcePerimeterSpacing=0;targetPerimeterSpacing=0;exitX=1;exitY=0.5;exitDx=0;exitDy=0;" edge="1" parent="1" source="z6geWVlJQv_1Q-CfxisJ-9" target="z6geWVlJQv_1Q-CfxisJ-17">
          <mxGeometry relative="1" as="geometry">
            <mxPoint x="1075" y="420" as="sourcePoint" />
          </mxGeometry>
        </mxCell>
        <mxCell id="z6geWVlJQv_1Q-CfxisJ-15" value="&lt;font style=&quot;font-size: 17px;&quot;&gt;API&lt;br&gt;Request&lt;/font&gt;" style="edgeLabel;html=1;align=center;verticalAlign=middle;resizable=0;points=[];labelBackgroundColor=none;" connectable="0" vertex="1" parent="z6geWVlJQv_1Q-CfxisJ-14">
          <mxGeometry x="-0.1" y="1" relative="1" as="geometry">
            <mxPoint x="8" y="1" as="offset" />
          </mxGeometry>
        </mxCell>
        <mxCell id="z6geWVlJQv_1Q-CfxisJ-16" value="" style="rounded=0;orthogonalLoop=1;jettySize=auto;html=1;endArrow=halfCircle;endFill=0;entryX=0.5;entryY=0.5;endSize=6;strokeWidth=1;sketch=0;exitX=0;exitY=0.5;exitDx=0;exitDy=0;" edge="1" parent="1" source="z6geWVlJQv_1Q-CfxisJ-8" target="z6geWVlJQv_1Q-CfxisJ-17">
          <mxGeometry relative="1" as="geometry">
            <mxPoint x="1115" y="420" as="sourcePoint" />
          </mxGeometry>
        </mxCell>
        <mxCell id="z6geWVlJQv_1Q-CfxisJ-17" value="" style="ellipse;whiteSpace=wrap;html=1;align=center;aspect=fixed;resizable=0;points=[];outlineConnect=0;sketch=0;" vertex="1" parent="1">
          <mxGeometry x="675" y="435" width="10" height="10" as="geometry" />
        </mxCell>
        <mxCell id="z6geWVlJQv_1Q-CfxisJ-18" style="edgeStyle=orthogonalEdgeStyle;rounded=0;orthogonalLoop=1;jettySize=auto;html=1;dashed=1;endArrow=none;endFill=0;" edge="1" parent="1">
          <mxGeometry relative="1" as="geometry">
            <mxPoint x="1185" y="425" as="sourcePoint" />
            <mxPoint x="1267.5" y="554.9967114093961" as="targetPoint" />
            <Array as="points">
              <mxPoint x="1243" y="425" />
              <mxPoint x="1243" y="555" />
            </Array>
          </mxGeometry>
        </mxCell>
        <mxCell id="z6geWVlJQv_1Q-CfxisJ-19" value="&lt;b&gt;&lt;font style=&quot;font-size: 17px;&quot;&gt;Wealth Manager&lt;/font&gt;&lt;/b&gt;" style="html=1;dashed=0;rounded=1;absoluteArcSize=1;arcSize=20;verticalAlign=middle;align=center;" vertex="1" parent="1">
          <mxGeometry x="1262.5" y="345" width="140" height="50" as="geometry" />
        </mxCell>
        <mxCell id="z6geWVlJQv_1Q-CfxisJ-20" value="*" style="text;resizeWidth=0;resizeHeight=0;points=[];part=1;verticalAlign=middle;align=center;" vertex="1" parent="z6geWVlJQv_1Q-CfxisJ-19">
          <mxGeometry x="1" y="0.5" width="20" height="20" relative="1" as="geometry">
            <mxPoint x="-20" y="-10" as="offset" />
          </mxGeometry>
        </mxCell>
        <mxCell id="z6geWVlJQv_1Q-CfxisJ-21" value="" style="points=[[0,0.5,0],[0.24,0,0],[0.5,0.28,0],[0.995,0.475,0],[0.5,0.72,0],[0.24,1,0]];verticalLabelPosition=bottom;sketch=0;html=1;verticalAlign=top;aspect=fixed;align=center;pointerEvents=1;shape=mxgraph.cisco19.key;fillColor=#000000;strokeColor=none;" vertex="1" parent="z6geWVlJQv_1Q-CfxisJ-19">
          <mxGeometry x="60.27874999999999" y="35" width="19.4425" height="8.75" as="geometry" />
        </mxCell>
        <mxCell id="z6geWVlJQv_1Q-CfxisJ-22" value="&lt;font style=&quot;font-size: 15px;&quot;&gt;Client 1&lt;/font&gt;" style="html=1;dashed=0;rounded=1;absoluteArcSize=1;arcSize=20;verticalAlign=middle;align=center;" vertex="1" parent="1">
          <mxGeometry x="1267.5" y="405" width="100" height="50" as="geometry" />
        </mxCell>
        <mxCell id="z6geWVlJQv_1Q-CfxisJ-23" value="*" style="text;resizeWidth=0;resizeHeight=0;points=[];part=1;verticalAlign=middle;align=center;" vertex="1" parent="z6geWVlJQv_1Q-CfxisJ-22">
          <mxGeometry x="1" y="0.5" width="20" height="20" relative="1" as="geometry">
            <mxPoint x="-20" y="-10" as="offset" />
          </mxGeometry>
        </mxCell>
        <mxCell id="z6geWVlJQv_1Q-CfxisJ-24" value="" style="points=[[0,0.5,0],[0.24,0,0],[0.5,0.28,0],[0.995,0.475,0],[0.5,0.72,0],[0.24,1,0]];verticalLabelPosition=bottom;sketch=0;html=1;verticalAlign=top;aspect=fixed;align=center;pointerEvents=1;shape=mxgraph.cisco19.key;fillColor=#000000;strokeColor=none;" vertex="1" parent="z6geWVlJQv_1Q-CfxisJ-22">
          <mxGeometry x="38.889999999999986" y="35" width="22.22" height="10" as="geometry" />
        </mxCell>
        <mxCell id="z6geWVlJQv_1Q-CfxisJ-25" value="&lt;font style=&quot;font-size: 15px;&quot;&gt;Client 2&lt;/font&gt;" style="html=1;dashed=0;rounded=1;absoluteArcSize=1;arcSize=20;verticalAlign=middle;align=center;" vertex="1" parent="1">
          <mxGeometry x="1267.5" y="475" width="100" height="45" as="geometry" />
        </mxCell>
        <mxCell id="z6geWVlJQv_1Q-CfxisJ-26" value="*" style="text;resizeWidth=0;resizeHeight=0;points=[];part=1;verticalAlign=middle;align=center;" vertex="1" parent="z6geWVlJQv_1Q-CfxisJ-25">
          <mxGeometry x="1" y="0.5" width="20" height="20" relative="1" as="geometry">
            <mxPoint x="-20" y="-10" as="offset" />
          </mxGeometry>
        </mxCell>
        <mxCell id="z6geWVlJQv_1Q-CfxisJ-27" value="" style="points=[[0,0.5,0],[0.24,0,0],[0.5,0.28,0],[0.995,0.475,0],[0.5,0.72,0],[0.24,1,0]];verticalLabelPosition=bottom;sketch=0;html=1;verticalAlign=top;aspect=fixed;align=center;pointerEvents=1;shape=mxgraph.cisco19.key;fillColor=#000000;strokeColor=none;" vertex="1" parent="z6geWVlJQv_1Q-CfxisJ-25">
          <mxGeometry x="32.63333333333333" y="7.5" width="3.8696428571428574" height="1.7410714285714284" as="geometry" />
        </mxCell>
        <mxCell id="z6geWVlJQv_1Q-CfxisJ-28" value="" style="points=[[0,0.5,0],[0.24,0,0],[0.5,0.28,0],[0.995,0.475,0],[0.5,0.72,0],[0.24,1,0]];verticalLabelPosition=bottom;sketch=0;html=1;verticalAlign=top;aspect=fixed;align=center;pointerEvents=1;shape=mxgraph.cisco19.key;fillColor=#000000;strokeColor=none;" vertex="1" parent="z6geWVlJQv_1Q-CfxisJ-25">
          <mxGeometry x="38.204545454545496" y="33" width="21.59090909090909" height="9.715909090909092" as="geometry" />
        </mxCell>
        <mxCell id="z6geWVlJQv_1Q-CfxisJ-29" value="&lt;font style=&quot;font-size: 15px;&quot;&gt;Client t&lt;/font&gt;" style="html=1;dashed=0;rounded=1;absoluteArcSize=1;arcSize=20;verticalAlign=middle;align=center;" vertex="1" parent="1">
          <mxGeometry x="1267.5" y="535" width="95" height="50" as="geometry" />
        </mxCell>
        <mxCell id="z6geWVlJQv_1Q-CfxisJ-30" value="*" style="text;resizeWidth=0;resizeHeight=0;points=[];part=1;verticalAlign=middle;align=center;" vertex="1" parent="z6geWVlJQv_1Q-CfxisJ-29">
          <mxGeometry x="1" y="0.5" width="20" height="20" relative="1" as="geometry">
            <mxPoint x="-20" y="-10" as="offset" />
          </mxGeometry>
        </mxCell>
        <mxCell id="z6geWVlJQv_1Q-CfxisJ-31" value="" style="points=[[0,0.5,0],[0.24,0,0],[0.5,0.28,0],[0.995,0.475,0],[0.5,0.72,0],[0.24,1,0]];verticalLabelPosition=bottom;sketch=0;html=1;verticalAlign=top;aspect=fixed;align=center;pointerEvents=1;shape=mxgraph.cisco19.key;fillColor=#000000;strokeColor=none;" vertex="1" parent="z6geWVlJQv_1Q-CfxisJ-29">
          <mxGeometry x="36.70454545454545" y="35" width="21.59090909090909" height="9.715909090909092" as="geometry" />
        </mxCell>
        <mxCell id="z6geWVlJQv_1Q-CfxisJ-32" style="edgeStyle=orthogonalEdgeStyle;rounded=0;orthogonalLoop=1;jettySize=auto;html=1;entryX=1;entryY=0.5;entryDx=0;entryDy=0;" edge="1" parent="1" source="z6geWVlJQv_1Q-CfxisJ-34" target="z6geWVlJQv_1Q-CfxisJ-36">
          <mxGeometry relative="1" as="geometry" />
        </mxCell>
        <mxCell id="z6geWVlJQv_1Q-CfxisJ-33" value="&lt;font style=&quot;font-size: 17px;&quot;&gt;Retrieves&amp;nbsp;Signature&lt;/font&gt;" style="edgeLabel;html=1;align=center;verticalAlign=middle;resizable=0;points=[];labelBackgroundColor=none;" vertex="1" connectable="0" parent="z6geWVlJQv_1Q-CfxisJ-32">
          <mxGeometry x="0.0445" y="-2" relative="1" as="geometry">
            <mxPoint x="2" as="offset" />
          </mxGeometry>
        </mxCell>
        <mxCell id="z6geWVlJQv_1Q-CfxisJ-34" value="" style="html=1;align=center;verticalAlign=middle;dashed=0;rotation=-90;strokeWidth=2;" vertex="1" parent="1">
          <mxGeometry x="1020" y="291" width="110" height="220" as="geometry" />
        </mxCell>
        <mxCell id="z6geWVlJQv_1Q-CfxisJ-35" value="&lt;font style=&quot;font-size: 18px;&quot;&gt;&amp;lt;&amp;lt;Component&amp;gt;&amp;gt;&lt;br style=&quot;border-color: var(--border-color);&quot;&gt;&lt;/font&gt;&lt;br style=&quot;border-color: var(--border-color); font-size: 18px;&quot;&gt;&lt;b style=&quot;border-color: var(--border-color);&quot;&gt;&lt;font style=&quot;font-size: 18px;&quot;&gt;MPC Server&lt;/font&gt;&lt;/b&gt;" style="text;html=1;align=center;verticalAlign=middle;resizable=0;points=[];autosize=1;strokeColor=none;fillColor=none;" vertex="1" parent="1">
          <mxGeometry x="995" y="340" width="160" height="70" as="geometry" />
        </mxCell>
        <mxCell id="z6geWVlJQv_1Q-CfxisJ-36" value="" style="html=1;align=center;verticalAlign=middle;dashed=0;rotation=-90;strokeWidth=2;" vertex="1" parent="1">
          <mxGeometry x="1020" y="449" width="110" height="220" as="geometry" />
        </mxCell>
        <mxCell id="z6geWVlJQv_1Q-CfxisJ-37" style="edgeStyle=orthogonalEdgeStyle;rounded=0;orthogonalLoop=1;jettySize=auto;html=1;exitX=0.75;exitY=0;exitDx=0;exitDy=0;entryX=0.601;entryY=0.002;entryDx=0;entryDy=0;entryPerimeter=0;" edge="1" parent="1" source="z6geWVlJQv_1Q-CfxisJ-8" target="z6geWVlJQv_1Q-CfxisJ-34">
          <mxGeometry relative="1" as="geometry" />
        </mxCell>
        <mxCell id="z6geWVlJQv_1Q-CfxisJ-38" value="&lt;font style=&quot;font-size: 17px;&quot;&gt;Transaction&lt;br&gt;Message&lt;/font&gt;" style="edgeLabel;html=1;align=center;verticalAlign=middle;resizable=0;points=[];" vertex="1" connectable="0" parent="z6geWVlJQv_1Q-CfxisJ-37">
          <mxGeometry x="0.1136" y="-1" relative="1" as="geometry">
            <mxPoint as="offset" />
          </mxGeometry>
        </mxCell>
        <mxCell id="z6geWVlJQv_1Q-CfxisJ-39" value="&lt;font style=&quot;font-size: 18px;&quot;&gt;&amp;lt;&amp;lt;Component&amp;gt;&amp;gt;&lt;br style=&quot;border-color: var(--border-color);&quot;&gt;&lt;/font&gt;&lt;br style=&quot;border-color: var(--border-color); font-size: 18px;&quot;&gt;&lt;b style=&quot;border-color: var(--border-color);&quot;&gt;&lt;font style=&quot;font-size: 18px;&quot;&gt;Cuckoo Filter&lt;/font&gt;&lt;/b&gt;" style="text;html=1;align=center;verticalAlign=middle;resizable=0;points=[];autosize=1;strokeColor=none;fillColor=none;" vertex="1" parent="1">
          <mxGeometry x="995" y="498" width="160" height="70" as="geometry" />
        </mxCell>
        <mxCell id="z6geWVlJQv_1Q-CfxisJ-40" style="edgeStyle=orthogonalEdgeStyle;rounded=0;orthogonalLoop=1;jettySize=auto;html=1;exitX=0.25;exitY=0;exitDx=0;exitDy=0;entryX=1;entryY=0.5;entryDx=0;entryDy=0;" edge="1" parent="1" target="z6geWVlJQv_1Q-CfxisJ-8">
          <mxGeometry relative="1" as="geometry">
            <mxPoint x="965" y="439.5" as="sourcePoint" />
            <mxPoint x="859.05" y="439.41999999999996" as="targetPoint" />
          </mxGeometry>
        </mxCell>
        <mxCell id="z6geWVlJQv_1Q-CfxisJ-41" value="&lt;span style=&quot;font-size: 17px;&quot;&gt;Signed&lt;br&gt;Transaction&lt;/span&gt;" style="edgeLabel;html=1;align=center;verticalAlign=middle;resizable=0;points=[];labelBackgroundColor=none;" vertex="1" connectable="0" parent="z6geWVlJQv_1Q-CfxisJ-40">
          <mxGeometry x="0.1948" relative="1" as="geometry">
            <mxPoint x="16" as="offset" />
          </mxGeometry>
        </mxCell>
        <mxCell id="z6geWVlJQv_1Q-CfxisJ-42" value="Signature &#xa;Generation" style="shape=module;align=left;spacingLeft=20;align=center;verticalAlign=top;fontSize=17;" vertex="1" parent="1">
          <mxGeometry x="965" y="405" width="105" height="50" as="geometry" />
        </mxCell>
        <mxCell id="z6geWVlJQv_1Q-CfxisJ-43" style="edgeStyle=orthogonalEdgeStyle;rounded=0;orthogonalLoop=1;jettySize=auto;html=1;exitX=0.347;exitY=0.998;exitDx=0;exitDy=0;entryX=0;entryY=0.5;entryDx=0;entryDy=0;dashed=1;endArrow=none;endFill=0;exitPerimeter=0;" edge="1" parent="1" source="z6geWVlJQv_1Q-CfxisJ-34">
          <mxGeometry relative="1" as="geometry">
            <mxPoint x="1217.5000000000002" y="420" as="sourcePoint" />
            <mxPoint x="1262.5000000000002" y="375" as="targetPoint" />
            <Array as="points">
              <mxPoint x="1185" y="420" />
              <mxPoint x="1218" y="420" />
              <mxPoint x="1218" y="375" />
            </Array>
          </mxGeometry>
        </mxCell>
        <mxCell id="z6geWVlJQv_1Q-CfxisJ-44" style="edgeStyle=orthogonalEdgeStyle;rounded=0;orthogonalLoop=1;jettySize=auto;html=1;entryX=-0.025;entryY=0.4;entryDx=0;entryDy=0;entryPerimeter=0;endArrow=none;endFill=0;dashed=1;" edge="1" parent="1" source="z6geWVlJQv_1Q-CfxisJ-34" target="z6geWVlJQv_1Q-CfxisJ-22">
          <mxGeometry relative="1" as="geometry">
            <Array as="points">
              <mxPoint x="1215" y="425" />
            </Array>
          </mxGeometry>
        </mxCell>
        <mxCell id="z6geWVlJQv_1Q-CfxisJ-45" style="edgeStyle=orthogonalEdgeStyle;rounded=0;orthogonalLoop=1;jettySize=auto;html=1;exitX=0.289;exitY=1;exitDx=0;exitDy=0;dashed=1;endArrow=none;endFill=0;exitPerimeter=0;" edge="1" parent="1" source="z6geWVlJQv_1Q-CfxisJ-34">
          <mxGeometry relative="1" as="geometry">
            <mxPoint x="1222.5" y="423.97" as="sourcePoint" />
            <mxPoint x="1267.5" y="508.9767114093961" as="targetPoint" />
            <Array as="points">
              <mxPoint x="1243" y="424" />
              <mxPoint x="1243" y="509" />
            </Array>
          </mxGeometry>
        </mxCell>
        <mxCell id="z6geWVlJQv_1Q-CfxisJ-46" value="" style="group;rotation=-90;" vertex="1" connectable="0" parent="1">
          <mxGeometry x="1065" y="485" width="20" height="190" as="geometry" />
        </mxCell>
        <mxCell id="z6geWVlJQv_1Q-CfxisJ-47" value="&lt;font style=&quot;font-size: 15px;&quot;&gt;&lt;b&gt;0&lt;/b&gt;&lt;/font&gt;" style="rounded=0;whiteSpace=wrap;html=1;rotation=0;" vertex="1" parent="z6geWVlJQv_1Q-CfxisJ-46">
          <mxGeometry x="-10" y="85" width="40" height="20" as="geometry" />
        </mxCell>
        <mxCell id="z6geWVlJQv_1Q-CfxisJ-48" value="&lt;font style=&quot;font-size: 15px;&quot;&gt;&lt;b&gt;0&lt;/b&gt;&lt;/font&gt;" style="rounded=0;whiteSpace=wrap;html=1;rotation=0;" vertex="1" parent="z6geWVlJQv_1Q-CfxisJ-46">
          <mxGeometry x="65" y="85" width="40" height="20" as="geometry" />
        </mxCell>
        <mxCell id="z6geWVlJQv_1Q-CfxisJ-49" value="&lt;font style=&quot;font-size: 15px;&quot;&gt;&lt;b&gt;0&lt;/b&gt;&lt;/font&gt;" style="rounded=0;whiteSpace=wrap;html=1;rotation=0;" vertex="1" parent="z6geWVlJQv_1Q-CfxisJ-46">
          <mxGeometry x="30" y="85" width="40" height="20" as="geometry" />
        </mxCell>
        <mxCell id="z6geWVlJQv_1Q-CfxisJ-50" value="&lt;font style=&quot;font-size: 15px;&quot;&gt;&lt;b&gt;0&lt;/b&gt;&lt;/font&gt;" style="rounded=0;whiteSpace=wrap;html=1;rotation=0;" vertex="1" parent="z6geWVlJQv_1Q-CfxisJ-46">
          <mxGeometry x="-85" y="85" width="40" height="20" as="geometry" />
        </mxCell>
        <mxCell id="z6geWVlJQv_1Q-CfxisJ-51" value="&lt;font style=&quot;font-size: 15px;&quot;&gt;1&lt;/font&gt;" style="rounded=0;whiteSpace=wrap;html=1;rotation=0;" vertex="1" parent="z6geWVlJQv_1Q-CfxisJ-46">
          <mxGeometry x="-50" y="85" width="40" height="20" as="geometry" />
        </mxCell>
        <mxCell id="z6geWVlJQv_1Q-CfxisJ-52" value="&lt;font style=&quot;font-size: 15px;&quot;&gt;m-bits&lt;/font&gt;" style="text;html=1;align=center;verticalAlign=middle;resizable=0;points=[];autosize=1;strokeColor=none;fillColor=none;rotation=0;" vertex="1" parent="1">
          <mxGeometry x="1045" y="587" width="70" height="30" as="geometry" />
        </mxCell>
        <mxCell id="z6geWVlJQv_1Q-CfxisJ-58" value="&lt;font style=&quot;font-size: 25px;&quot;&gt;&lt;b&gt;Blockchain&lt;/b&gt;&lt;/font&gt;" style="shape=umlFrame;whiteSpace=wrap;html=1;width=140;height=30;boundedLbl=1;verticalAlign=middle;align=left;spacingLeft=5;" vertex="1" parent="1">
          <mxGeometry x="757.5" y="700" width="470" height="260" as="geometry" />
        </mxCell>
        <mxCell id="z6geWVlJQv_1Q-CfxisJ-59" value="" style="rounded=1;whiteSpace=wrap;html=1;" vertex="1" parent="1">
          <mxGeometry x="817.5" y="880" width="370" height="40" as="geometry" />
        </mxCell>
        <mxCell id="z6geWVlJQv_1Q-CfxisJ-60" value="&lt;font style=&quot;font-size: 18px;&quot;&gt;&amp;lt;&amp;lt;Component&amp;gt;&amp;gt;&lt;br&gt;&lt;b&gt;Gateway&lt;/b&gt;&lt;/font&gt;" style="html=1;align=center;verticalAlign=middle;dashed=0;" vertex="1" parent="1">
          <mxGeometry x="907.5" y="660" width="140" height="65" as="geometry" />
        </mxCell>
        <mxCell id="z6geWVlJQv_1Q-CfxisJ-61" value="" style="rounded=1;whiteSpace=wrap;html=1;" vertex="1" parent="1">
          <mxGeometry x="817.5" y="780" width="370" height="40" as="geometry" />
        </mxCell>
        <mxCell id="z6geWVlJQv_1Q-CfxisJ-62" value="&lt;font style=&quot;font-size: 18px;&quot;&gt;&amp;lt;&amp;lt;Component&amp;gt;&amp;gt;&lt;br&gt;&lt;b&gt;Indexing&lt;br&gt;Service&lt;/b&gt;&lt;/font&gt;" style="html=1;align=center;verticalAlign=middle;dashed=0;" vertex="1" parent="1">
          <mxGeometry x="1057.5" y="660" width="145" height="65" as="geometry" />
        </mxCell>
        <mxCell id="z6geWVlJQv_1Q-CfxisJ-63" value="" style="rounded=1;whiteSpace=wrap;html=1;" vertex="1" parent="1">
          <mxGeometry x="817.5" y="830" width="370" height="40" as="geometry" />
        </mxCell>
        <mxCell id="z6geWVlJQv_1Q-CfxisJ-64" value="&lt;font style=&quot;font-size: 20px;&quot;&gt;DeFi&lt;/font&gt;" style="shape=umlFrame;whiteSpace=wrap;html=1;width=85;height=25;boundedLbl=1;verticalAlign=middle;align=left;spacingLeft=5;" vertex="1" parent="1">
          <mxGeometry x="902.5" y="735" width="295" height="215" as="geometry" />
        </mxCell>
        <mxCell id="z6geWVlJQv_1Q-CfxisJ-65" value="&lt;font style=&quot;font-size: 18px;&quot;&gt;Ethereum&lt;/font&gt;" style="text;html=1;align=center;verticalAlign=middle;resizable=0;points=[];autosize=1;strokeColor=none;fillColor=none;" vertex="1" parent="1">
          <mxGeometry x="812.5" y="780" width="100" height="40" as="geometry" />
        </mxCell>
        <mxCell id="z6geWVlJQv_1Q-CfxisJ-66" value="&lt;font style=&quot;font-size: 18px;&quot;&gt;Ripple&lt;/font&gt;" style="text;html=1;align=center;verticalAlign=middle;resizable=0;points=[];autosize=1;strokeColor=none;fillColor=none;" vertex="1" parent="1">
          <mxGeometry x="807.5" y="830" width="80" height="40" as="geometry" />
        </mxCell>
        <mxCell id="z6geWVlJQv_1Q-CfxisJ-67" value="&lt;font style=&quot;font-size: 18px;&quot;&gt;«Component»&lt;br&gt;&lt;b&gt;Decentralised &lt;br&gt;Exchange&lt;/b&gt;&lt;/font&gt;" style="html=1;dropTarget=0;" vertex="1" parent="1">
          <mxGeometry x="912.5" y="772.5" width="125" height="157.5" as="geometry" />
        </mxCell>
        <mxCell id="z6geWVlJQv_1Q-CfxisJ-68" value="" style="shape=module;jettyWidth=8;jettyHeight=4;" vertex="1" parent="z6geWVlJQv_1Q-CfxisJ-67">
          <mxGeometry x="1" width="20" height="20" relative="1" as="geometry">
            <mxPoint x="-27" y="7" as="offset" />
          </mxGeometry>
        </mxCell>
        <mxCell id="z6geWVlJQv_1Q-CfxisJ-69" value="&lt;font style=&quot;font-size: 18px;&quot;&gt;«Component»&lt;br&gt;&lt;b&gt;Lending&lt;/b&gt;&lt;/font&gt;" style="html=1;dropTarget=0;" vertex="1" parent="1">
          <mxGeometry x="1057.5" y="770" width="120" height="160" as="geometry" />
        </mxCell>
        <mxCell id="z6geWVlJQv_1Q-CfxisJ-70" value="" style="shape=module;jettyWidth=8;jettyHeight=4;" vertex="1" parent="z6geWVlJQv_1Q-CfxisJ-69">
          <mxGeometry x="1" width="20" height="20" relative="1" as="geometry">
            <mxPoint x="-27" y="7" as="offset" />
          </mxGeometry>
        </mxCell>
        <mxCell id="z6geWVlJQv_1Q-CfxisJ-71" value="" style="rounded=0;orthogonalLoop=1;jettySize=auto;html=1;endArrow=none;endFill=0;sketch=0;sourcePerimeterSpacing=0;targetPerimeterSpacing=0;strokeWidth=1;exitX=0.453;exitY=1.05;exitDx=0;exitDy=0;exitPerimeter=0;" edge="1" parent="1" source="z6geWVlJQv_1Q-CfxisJ-8" target="z6geWVlJQv_1Q-CfxisJ-73">
          <mxGeometry relative="1" as="geometry">
            <mxPoint x="642.5" y="635" as="sourcePoint" />
          </mxGeometry>
        </mxCell>
        <mxCell id="z6geWVlJQv_1Q-CfxisJ-72" value="" style="rounded=0;orthogonalLoop=1;jettySize=auto;html=1;endArrow=halfCircle;endFill=0;entryX=0.5;entryY=0.5;endSize=6;strokeWidth=1;sketch=0;exitX=0;exitY=0.5;exitDx=0;exitDy=0;" edge="1" parent="1" source="z6geWVlJQv_1Q-CfxisJ-60" target="z6geWVlJQv_1Q-CfxisJ-73">
          <mxGeometry relative="1" as="geometry">
            <mxPoint x="652.5" y="615" as="sourcePoint" />
          </mxGeometry>
        </mxCell>
        <mxCell id="z6geWVlJQv_1Q-CfxisJ-73" value="" style="ellipse;whiteSpace=wrap;html=1;align=center;aspect=fixed;resizable=0;points=[];outlineConnect=0;sketch=0;" vertex="1" parent="1">
          <mxGeometry x="767.5" y="670" width="10" height="10" as="geometry" />
        </mxCell>
        <mxCell id="z6geWVlJQv_1Q-CfxisJ-74" value="&lt;font style=&quot;font-size: 18px;&quot;&gt;Hedera&lt;/font&gt;" style="text;html=1;align=center;verticalAlign=middle;resizable=0;points=[];autosize=1;strokeColor=none;fillColor=none;" vertex="1" parent="1">
          <mxGeometry x="812.5" y="880" width="80" height="40" as="geometry" />
        </mxCell>
        <mxCell id="z6geWVlJQv_1Q-CfxisJ-75" value="" style="shape=actor;whiteSpace=wrap;html=1;strokeWidth=2;" vertex="1" parent="1">
          <mxGeometry x="355" y="480" width="40" height="60" as="geometry" />
        </mxCell>
        <mxCell id="z6geWVlJQv_1Q-CfxisJ-76" value="&lt;font style=&quot;font-size: 25px;&quot;&gt;&lt;b&gt;Wealth&lt;br&gt;Manager&lt;br&gt;User&lt;/b&gt;&lt;br&gt;&lt;/font&gt;" style="text;html=1;align=center;verticalAlign=middle;resizable=0;points=[];autosize=1;strokeColor=none;fillColor=none;labelBackgroundColor=default;" vertex="1" parent="1">
          <mxGeometry x="310" y="540" width="130" height="100" as="geometry" />
        </mxCell>
        <mxCell id="z6geWVlJQv_1Q-CfxisJ-77" value="&lt;font style=&quot;font-size: 17px;&quot;&gt;Interaction&lt;/font&gt;" style="text;html=1;align=center;verticalAlign=middle;resizable=0;points=[];autosize=1;strokeColor=none;fillColor=none;" vertex="1" parent="1">
          <mxGeometry x="320" y="425" width="100" height="30" as="geometry" />
        </mxCell>
        <mxCell id="z6geWVlJQv_1Q-CfxisJ-78" style="edgeStyle=orthogonalEdgeStyle;rounded=0;orthogonalLoop=1;jettySize=auto;html=1;exitX=0.5;exitY=0;exitDx=0;exitDy=0;entryX=0.005;entryY=0.693;entryDx=0;entryDy=0;entryPerimeter=0;" edge="1" parent="1" source="z6geWVlJQv_1Q-CfxisJ-75" target="z6geWVlJQv_1Q-CfxisJ-9">
          <mxGeometry relative="1" as="geometry" />
        </mxCell>
        <mxCell id="z6geWVlJQv_1Q-CfxisJ-79" style="edgeStyle=orthogonalEdgeStyle;rounded=0;orthogonalLoop=1;jettySize=auto;html=1;exitX=0.5;exitY=1;exitDx=0;exitDy=0;entryX=-0.002;entryY=0.352;entryDx=0;entryDy=0;entryPerimeter=0;" edge="1" parent="1" source="z6geWVlJQv_1Q-CfxisJ-3" target="z6geWVlJQv_1Q-CfxisJ-9">
          <mxGeometry relative="1" as="geometry" />
        </mxCell>
        <mxCell id="z6geWVlJQv_1Q-CfxisJ-80" value="" style="rounded=0;whiteSpace=wrap;html=1;opacity=10;fillColor=#1ba1e2;strokeColor=#006EAF;fontColor=#ffffff;" vertex="1" parent="1">
          <mxGeometry x="860" y="310" width="560" height="330" as="geometry" />
        </mxCell>
      </root>
    </mxGraphModel>
  </diagram>
</mxfile>
